<?xml version="1.0" encoding="utf-8"?>
<!-- Generator: Adobe Illustrator 19.0.1, SVG Export Plug-In . SVG Version: 6.00 Build 0)  -->
<svg version="1.1" id="Layer_1" xmlns="http://www.w3.org/2000/svg" xmlns:xlink="http://www.w3.org/1999/xlink" x="0px" y="0px"
	 viewBox="-157 283.3 184.8 34.7" style="enable-background:new -157 283.3 184.8 34.7;" xml:space="preserve">
<style type="text/css">
	.st0{fill:#333333;}
</style>
<g>
	<g>
		<path class="st0" d="M-131.5,308.3c-2.9,2.8-6.6,4.2-10.6,4.2c-10.5,0-14.9-7.2-14.9-14.4c0-7.4,4.7-14.8,14.8-14.8
			c3.8,0,7.4,1.4,10.3,4.3l-3.5,3.4c-1.8-1.8-4.3-2.7-6.8-2.7c-6.8,0-9.7,5-9.6,9.7c0,4.6,2.7,9.5,9.6,9.5c2.4,0,5.2-1,7-2.8
			L-131.5,308.3z"/>
		<path class="st0" d="M-98.9,311.9h-6.3l-8.2-9.4h-5.1v9.4h-5.3v-28c4.4,0,8.9,0,13.3,0c6.6,0,10.1,4.4,10.1,9.3
			c0,3.8-1.8,7.7-7.1,8.8l8.5,9.6L-98.9,311.9L-98.9,311.9z M-118.4,288.8v9h8c3.4,0,4.8-2.2,4.8-4.5c0-2.2-1.5-4.5-4.8-4.5H-118.4z
			"/>
		<path class="st0" d="M-91.9,311.9v-28h5.2v28H-91.9z"/>
		<path class="st0" d="M-68.4,288.7h-8.9v-4.8c8.1,0,14.9,0,23,0v4.8h-8.9v23.2h-5.3v-23.2H-68.4z"/>
		<path class="st0" d="M-39,288.7h-8.9v-4.8c8.1,0,14.9,0,23,0v4.8h-8.9v23.2H-39V288.7z"/>
		<path class="st0" d="M-16.8,311.9v-28h5.2v28H-16.8z"/>
	</g>
	<path class="st0" d="M27.8,299.3c0-8.5-6.9-15.4-15.4-15.4S-3,290.8-3,299.3s6.9,15.4,15.4,15.4c0.4,0,0.7,0,1.1,0
		c1.8,1.5,5.6,4.2,9.5,3.1c0,0-2.6-2.3-3.2-4.9C24.6,310.3,27.8,305.2,27.8,299.3z M17,307.8c0.4,1.6,2,3.1,2,3.1
		c-2.4,0.7-4.9-1-6-1.9c-0.2,0-0.4,0-0.7,0c-5.4,0-9.7-4.4-9.7-9.7s4.4-9.7,9.7-9.7c5.4,0,9.7,4.4,9.7,9.7
		C22.1,303,20.1,306.2,17,307.8z"/>
</g>
</svg>
