<?xml version="1.0" encoding="utf-8"?>
<!-- Generator: Adobe Illustrator 19.0.0, SVG Export Plug-In . SVG Version: 6.00 Build 0)  -->
<svg version="1.1" id="Layer_1" xmlns="http://www.w3.org/2000/svg" xmlns:xlink="http://www.w3.org/1999/xlink" x="0px" y="0px"
	 viewBox="0 0 184.8 34.7" enable-background="new 0 0 184.8 34.7" xml:space="preserve">
<rect x="-61.1" y="252.8" fill="none" width="221.7" height="93.9"/>
<text transform="matrix(1 0 0 1 -61.0901 280.7202)" font-family="'NexaBold'" font-size="40px" letter-spacing="4">CRITTI</text>
<path d="M124.9,268.2c0-8.5-6.9-15.4-15.4-15.4c-8.5,0-15.4,6.9-15.4,15.4s6.9,15.4,15.4,15.4c0.4,0,0.7,0,1.1,0
	c1.8,1.5,5.6,4.2,9.5,3.1c0,0-2.6-2.3-3.2-4.9C121.6,279.1,124.9,274,124.9,268.2z"/>
<path fill="#FFFFFF" d="M119.2,268.1c0-5.4-4.4-9.7-9.7-9.7c-5.4,0-9.7,4.4-9.7,9.7c0,5.4,4.4,9.7,9.7,9.7c0.2,0,0.5,0,0.7,0
	c1.1,0.9,3.6,2.6,6,1.9c0,0-1.6-1.5-2-3.1C117.1,275,119.2,271.8,119.2,268.1z"/>
<rect x="-11.5" y="58.8" width="209.3" height="58.3"/>
<g>
	<g>
		<path fill="#FFFFFF" d="M25.5,25c-2.9,2.8-6.6,4.2-10.6,4.2C4.4,29.2,0,22,0,14.8C0,7.4,4.7,0,14.8,0c3.8,0,7.4,1.4,10.3,4.3
			l-3.5,3.4C19.8,5.9,17.3,5,14.8,5c-6.8,0-9.7,5-9.6,9.7c0,4.6,2.7,9.5,9.6,9.5c2.4,0,5.2-1,7-2.8L25.5,25z"/>
		<path fill="#FFFFFF" d="M58.1,28.6h-6.3l-8.2-9.4h-5.1v9.4h-5.3v-28c4.4,0,8.9,0,13.3,0c6.6,0,10.1,4.4,10.1,9.3
			c0,3.8-1.8,7.7-7.1,8.8l8.5,9.6V28.6z M38.6,5.5v9h8c3.4,0,4.8-2.2,4.8-4.5c0-2.2-1.5-4.5-4.8-4.5H38.6z"/>
		<path fill="#FFFFFF" d="M65.1,28.6v-28h5.2v28H65.1z"/>
		<path fill="#FFFFFF" d="M88.6,5.4h-8.9V0.6c8.1,0,14.9,0,23,0v4.8h-8.9v23.2h-5.3V5.4z"/>
		<path fill="#FFFFFF" d="M118,5.4h-8.9V0.6c8.1,0,14.9,0,23,0v4.8h-8.9v23.2H118V5.4z"/>
		<path fill="#FFFFFF" d="M140.2,28.6v-28h5.2v28H140.2z"/>
	</g>
	<path fill="#FFFFFF" d="M184.8,16c0-8.5-6.9-15.4-15.4-15.4c-8.5,0-15.4,6.9-15.4,15.4s6.9,15.4,15.4,15.4c0.4,0,0.7,0,1.1,0
		c1.8,1.5,5.6,4.2,9.5,3.1c0,0-2.6-2.3-3.2-4.9C181.6,27,184.8,21.9,184.8,16z M174,24.5c0.4,1.6,2,3.1,2,3.1c-2.4,0.7-4.9-1-6-1.9
		c-0.2,0-0.4,0-0.7,0c-5.4,0-9.7-4.4-9.7-9.7s4.4-9.7,9.7-9.7c5.4,0,9.7,4.4,9.7,9.7C179.1,19.7,177.1,22.9,174,24.5z"/>
</g>
<g>
	<path fill="#FFFFFF" d="M25.5,95c-2.9,2.8-6.6,4.2-10.6,4.2C4.4,99.2,0,92,0,84.8C0,77.4,4.7,70,14.8,70c3.8,0,7.4,1.4,10.3,4.3
		l-3.5,3.4c-1.8-1.8-4.3-2.6-6.8-2.6c-6.8,0-9.7,5-9.6,9.7c0,4.6,2.7,9.5,9.6,9.5c2.4,0,5.2-1,7-2.8L25.5,95z"/>
	<path fill="#FFFFFF" d="M58.1,98.6h-6.3l-8.2-9.4h-5.1v9.4h-5.3v-28c4.4,0,8.9,0,13.3,0c6.6,0,10.1,4.4,10.1,9.3
		c0,3.8-1.8,7.7-7.1,8.8l8.5,9.6V98.6z M38.6,75.5v9h8c3.4,0,4.8-2.2,4.8-4.5c0-2.2-1.5-4.5-4.8-4.5H38.6z"/>
	<path fill="#FFFFFF" d="M65.1,98.6v-28h5.2v28H65.1z"/>
	<path fill="#FFFFFF" d="M88.6,75.4h-8.9v-4.8c8.1,0,14.9,0,23,0v4.8h-8.9v23.2h-5.3V75.4z"/>
	<path fill="#FFFFFF" d="M118,75.4h-8.9v-4.8c8.1,0,14.9,0,23,0v4.8h-8.9v23.2H118V75.4z"/>
	<path fill="#FFFFFF" d="M140.2,98.6v-28h5.2v28H140.2z"/>
</g>
<path fill="#FFFFFF" d="M184.8,86c0-8.5-6.9-15.4-15.4-15.4c-8.5,0-15.4,6.9-15.4,15.4c0,8.5,6.9,15.4,15.4,15.4c0.4,0,0.7,0,1.1,0
	c1.8,1.5,5.6,4.2,9.5,3.1c0,0-2.6-2.3-3.2-4.9C181.6,97,184.8,91.9,184.8,86z"/>
<path d="M179.1,86c0-5.4-4.4-9.7-9.7-9.7c-5.4,0-9.7,4.4-9.7,9.7c0,5.4,4.4,9.7,9.7,9.7c0.2,0,0.5,0,0.7,0c1.1,0.9,3.6,2.6,6,1.9
	c0,0-1.6-1.5-2-3.1C177.1,92.9,179.1,89.7,179.1,86z"/>
</svg>
