<?xml version="1.0" encoding="utf-8"?>
<!-- Generator: Adobe Illustrator 19.0.1, SVG Export Plug-In . SVG Version: 6.00 Build 0)  -->
<svg version="1.1" id="Layer_1" xmlns="http://www.w3.org/2000/svg" xmlns:xlink="http://www.w3.org/1999/xlink" x="0px" y="0px"
	 viewBox="-160 567.2 30.8 34.2" style="enable-background:new -160 567.2 30.8 34.2;" xml:space="preserve">
<style type="text/css">
	.st0{fill:#FFFFFF;}
</style>
<g>
	<path class="st0" d="M-129.2,582.6c0-8.5-6.9-15.4-15.4-15.4s-15.4,6.9-15.4,15.4s6.9,15.4,15.4,15.4c0.4,0,0.7,0,1.1,0
		c1.8,1.5,5.6,4.2,9.5,3.1c0,0-2.6-2.3-3.2-4.9C-132.4,593.6-129.2,588.5-129.2,582.6z M-140,591.1c0.4,1.6,2,3.1,2,3.1
		c-2.4,0.7-4.9-1-6-1.9c-0.2,0-0.4,0-0.7,0c-5.4,0-9.7-4.4-9.7-9.7c0-5.3,4.4-9.7,9.7-9.7c5.4,0,9.7,4.4,9.7,9.7
		C-134.9,586.3-136.9,589.5-140,591.1z"/>
</g>
</svg>
